<?xml version="1.0" standalone="no"?> <!DOCTYPE svg PUBLIC "-//W3C//DTD SVG 20010904//EN" "http://www.w3.org/TR/2001/REC-SVG-20010904/DTD/svg10.dtd"> <svg version="1.0" xmlns="http://www.w3.org/2000/svg" width="494.000000pt" height="247.000000pt" viewBox="0 0 494.000000 247.000000" preserveAspectRatio="xMidYMid meet"> <g transform="translate(0.000000,247.000000) scale(0.100000,-0.100000)" fill="#b7410e" stroke="none"> <path d="M2300 2427 c-42 -22 -45 -26 -45 -65 0 -39 -2 -41 -35 -47 -19 -3 -181 -80 -360 -169 -179 -90 -374 -185 -435 -211 -60 -26 -134 -58 -163 -71 -29 -13 -54 -24 -57 -24 -2 0 -46 -20 -97 -44 -51 -24 -140 -65 -198 -91 -318 -144 -384 -178 -483 -242 -90 -60 -120 -74 -185 -89 -165 -36 -235 -78 -216 -131 14 -40 60 -66 170 -98 156 -44 403 -162 714 -341 41 -24 121 -63 178 -88 154 -69 286 -137 502 -259 231 -131 354 -211 470 -306 124 -102 165 -126 217 -123 30 1 55 10 79 29 34 25 38 26 80 15 69 -19 87 -15 176 32 46 24 277 141 513 261 237 120 475 241 530 270 98 52 222 116 500 260 558 289 714 373 748 403 9 8 17 25 17 37 0 55 -56 91 -290 185 -52 22 -158 66 -235 98 -279 118 -575 241 -795 332 -392 161 -464 191 -495 205 -106 48 -698 283 -730 289 -22 5 -43 0 -75 -17z m295 -255 c132 -55 335 -139 450 -187 116 -48 397 -165 625 -260 228 -95 528 -219 665 -275 138 -57 254 -107 259 -111 4 -4 -52 -37 -125 -74 -140 -70 -692 -358 -1094 -570 -44 -23 -138 -73 -210 -110 -71 -37 -157 -82 -190 -100 -33 -18 -153 -80 -267 -139 l-207 -107 -40 20 c-42 22 -106 28 -116 11 -3 -6 -19 -17 -35 -25 -34 -17 -38 -15 -194 100 -176 130 -578 360 -859 491 -108 51 -232 111 -275 135 -257 140 -396 212 -464 241 -43 17 -78 35 -78 39 0 3 14 13 32 20 18 7 71 39 118 70 97 65 152 92 360 180 80 34 210 92 290 129 80 37 210 95 290 130 214 92 717 349 756 386 39 36 43 65 14 112 l-20 32 38 -19 c20 -10 145 -64 277 -119z"/> <path d="M2075 1770 c-63 -11 -117 -33 -203 -84 -60 -35 -82 -54 -87 -73 -8 -32 7 -123 41 -250 13 -51 24 -108 24 -125 0 -47 26 -177 44 -220 9 -20 19 -70 22 -110 10 -111 36 -148 104 -148 50 0 80 38 80 102 0 59 -25 175 -42 195 -17 21 26 16 75 -8 50 -26 105 -67 172 -130 28 -26 60 -50 71 -53 33 -10 71 10 90 45 34 66 -6 124 -148 216 -37 24 -68 47 -68 51 0 4 15 17 34 29 27 18 39 36 61 100 59 174 42 300 -56 400 -67 69 -111 82 -214 63z m104 -194 c32 -34 38 -115 14 -185 -17 -51 -22 -56 -84 -88 -71 -36 -99 -35 -99 2 0 12 -7 41 -15 64 -8 23 -17 71 -21 105 -6 62 -6 63 24 84 68 49 145 57 181 18z"/> <path d="M3015 1716 c-76 -22 -127 -47 -258 -131 -93 -60 -147 -163 -127 -245 25 -100 69 -135 216 -171 92 -22 164 -52 164 -69 0 -5 -29 -30 -64 -55 -64 -46 -158 -85 -203 -85 -86 0 -130 -104 -67 -159 24 -20 34 -23 82 -17 68 8 206 60 252 95 19 14 54 39 78 55 132 90 144 198 33 299 -51 45 -109 70 -236 102 -66 16 -81 24 -83 41 -4 25 53 79 106 101 19 8 51 25 71 38 20 12 61 28 91 35 80 18 107 35 120 74 14 43 -7 92 -46 106 -32 12 -33 12 -129 -14z"/> </g> </svg>